<?xml version="1.0" encoding="utf-8"?>
<!-- Uploaded to: SVG Repo, www.svgrepo.com, Generator: SVG Repo Mixer Tools -->
<svg width="800px" height="800px" viewBox="0 0 1024 1024" class="icon"  version="1.1" xmlns="http://www.w3.org/2000/svg"><path d="M819.672719 582.572639m-109.078031 0a109.078031 109.078031 0 1 0 218.156061 0 109.078031 109.078031 0 1 0-218.156061 0Z" fill="#FAE1DC" /><path d="M158.007924 582.572639m-109.078031 0a109.078031 109.078031 0 1 0 218.156061 0 109.078031 109.078031 0 1 0-218.156061 0Z" fill="#FAE1DC" /><path d="M239.110897 804.856168m-70.590278 0a70.590278 70.590278 0 1 0 141.180556 0 70.590278 70.590278 0 1 0-141.180556 0Z" fill="#EB6A3C" /><path d="M186.229924 918.978882l25.505633 53.48069 46.636855-40.710235-64.063941-29.844765zM127.563441 866.591794l-50.587935-30.832535 45.29631-42.227168 23.14204 66.780308z" fill="#A3B15C" /><path d="M83.868459 977.269282a37.323595 78.774658 41.854 1 0 105.122382-117.35021 37.323595 78.774658 41.854 1 0-105.122382 117.35021Z" fill="#EB6A3C" /><path d="M166.015916 885.006649m-42.721053 0a42.721053 42.721053 0 1 0 85.442106 0 42.721053 42.721053 0 1 0-85.442106 0Z" fill="#6D743E" /><path d="M768.273401 801.152031m-74.047473 0a74.047473 74.047473 0 1 0 148.094946 0 74.047473 74.047473 0 1 0-148.094946 0Z" fill="#EB6A3C" /><path d="M823.729631 920.883867l-26.740345 56.126503-48.929893-42.756331 67.203638-31.291142zM885.288869 865.921521l53.092638-32.349467-47.518793-44.308541-24.27092 70.061116z" fill="#A3B15C" /><path d="M931.212112 982.169214a82.655183 39.158025 48.146 1 0-110.300824-123.131009 82.655183 39.158025 48.146 1 0 110.300824 123.131009Z" fill="#EB6A3C" /><path d="M844.966686 885.218314m-44.802425 0a44.802425 44.802425 0 1 0 89.604851 0 44.802425 44.802425 0 1 0-89.604851 0Z" fill="#6D743E" /><path d="M498.435801 551.281497m-365.686568 0a365.686568 365.686568 0 1 0 731.373136 0 365.686568 365.686568 0 1 0-731.373136 0Z" fill="#FAE1DC" /><path d="M618.061805 71.754436h-239.287285c-157.831536 0-286.947187 141.498054-286.947187 314.463637v38.134978c0 10.936025 0.529163 21.73094 1.516933 32.384745H512.934854c44.237985-11.57102 119.308506-42.932718 146.260516-125.058739 10.936025 64.76949 23.918145 104.280291 85.51266 125.058739h158.784029c1.023048-10.653805 1.516933-21.44872 1.516933-32.384745v-38.134978c0.035278-172.965584-129.115651-314.463637-286.947187-314.463637z" fill="#EB6A3C" /><path d="M508.419334 840.768664c-53.269025 0-66.568643-60.324525-66.568643-60.324526H575.023254s-13.334895 60.324525-66.60392 60.324526z" fill="#E15B48" /></svg>